<svg width="17" height="17" viewBox="0 0 17 17" fill="none" xmlns="http://www.w3.org/2000/svg">
<path d="M8.50002 2.91657V14.8684M8.50002 2.91657L9.27929 2.62414C11.0526 1.95868 13.0308 1.95868 14.8041 2.62414C15.2747 2.80076 15.5834 3.22841 15.5834 3.70397V13.5149C15.5834 14.1679 14.8804 14.6144 14.2341 14.3719C12.8267 13.8437 11.2567 13.8437 9.84929 14.3719L8.50973 14.8746C8.50508 14.8763 8.50002 14.8731 8.50002 14.8684M8.50002 2.91657L7.72076 2.62414C5.94746 1.95868 3.96925 1.95868 2.19595 2.62414C1.7253 2.80076 1.41669 3.22841 1.41669 3.70397V13.5149C1.41669 14.1679 2.11969 14.6144 2.76596 14.3719C4.17335 13.8437 5.74336 13.8437 7.15075 14.3719L8.49031 14.8746C8.49496 14.8763 8.50002 14.8731 8.50002 14.8684" stroke="white" stroke-width="1.0625"/>
</svg>
