<svg width="17" height="17" viewBox="0 0 17 17" fill="none" xmlns="http://www.w3.org/2000/svg">
<path d="M1.41669 7.40665C1.41669 5.85888 2.6714 4.60417 4.21917 4.60417V4.60417C4.6676 4.60417 5.07289 4.33692 5.24953 3.92475L5.46889 3.41292C5.80374 2.63159 6.57201 2.125 7.42207 2.125H8.50002H9.57797C10.428 2.125 11.1963 2.63159 11.5312 3.41292L11.7505 3.92475C11.9272 4.33692 12.3324 4.60417 12.7809 4.60417V4.60417C14.3286 4.60417 15.5834 5.85888 15.5834 7.40665V10.9792C15.5834 12.9352 13.9977 14.5208 12.0417 14.5208H4.95836C3.00235 14.5208 1.41669 12.9352 1.41669 10.9792V7.40665Z" stroke="white" stroke-width="1.0625"/>
<circle cx="2.125" cy="2.125" r="2.125" transform="matrix(-1 0 0 1 10.6249 6.72917)" stroke="white" stroke-width="1.0625"/>
</svg>
