<svg width="19" height="24" viewBox="0 0 19 24" fill="none" xmlns="http://www.w3.org/2000/svg">
<g filter="url(#filter0_d_33_645)">
<path d="M10.7413 2.24703C10.7398 2.19304 10.6809 2.15788 10.6345 2.18558C8.17987 3.65202 8.22533 7.33062 8.25463 7.99717C8.25684 8.04745 8.20927 8.08293 8.16374 8.06149C7.88017 7.92794 7.06768 7.42499 7.02279 6.0317C7.02105 5.97763 6.96272 5.94288 6.91618 5.97046C5.49495 6.81279 4.54169 8.36854 4.54169 10.0938C4.54169 12.7344 6.76161 14.875 9.50002 14.875C12.2384 14.875 14.4584 12.7344 14.4584 10.0938C14.4583 6.25753 10.8319 5.43251 10.7413 2.24703Z" stroke="white" stroke-width="1.0625"/>
</g>
<defs>
<filter id="filter0_d_33_645" x="-3" y="0" width="25" height="25" filterUnits="userSpaceOnUse" color-interpolation-filters="sRGB">
<feFlood flood-opacity="0" result="BackgroundImageFix"/>
<feColorMatrix in="SourceAlpha" type="matrix" values="0 0 0 0 0 0 0 0 0 0 0 0 0 0 0 0 0 0 127 0" result="hardAlpha"/>
<feOffset dy="4"/>
<feGaussianBlur stdDeviation="2"/>
<feComposite in2="hardAlpha" operator="out"/>
<feColorMatrix type="matrix" values="0 0 0 0 0 0 0 0 0 0 0 0 0 0 0 0 0 0 0.25 0"/>
<feBlend mode="normal" in2="BackgroundImageFix" result="effect1_dropShadow_33_645"/>
<feBlend mode="normal" in="SourceGraphic" in2="effect1_dropShadow_33_645" result="shape"/>
</filter>
</defs>
</svg>
