<svg width="17" height="17" viewBox="0 0 17 17" fill="none" xmlns="http://www.w3.org/2000/svg">
<path d="M1.77081 7.74804C1.77081 6.88091 2.16789 6.06152 2.84849 5.5242L6.74432 2.44855C7.7737 1.63588 9.22626 1.63588 10.2556 2.44855L14.1515 5.5242C14.8321 6.06152 15.2291 6.88091 15.2291 7.74804V12.3958C15.2291 13.9606 13.9606 15.2292 12.3958 15.2292H11.3333C10.9421 15.2292 10.625 14.912 10.625 14.5208V12.3958C10.625 11.6134 9.99072 10.9792 9.20831 10.9792H7.79165C7.00924 10.9792 6.37498 11.6134 6.37498 12.3958V14.5208C6.37498 14.912 6.05785 15.2292 5.66665 15.2292H4.60415C3.03934 15.2292 1.77081 13.9606 1.77081 12.3958L1.77081 7.74804Z" stroke="white" stroke-width="1.0625"/>
</svg>
