<svg width="17" height="17" viewBox="0 0 17 17" fill="none" xmlns="http://www.w3.org/2000/svg">
<circle cx="2.125" cy="2.125" r="2.125" transform="matrix(-1 0 0 1 10.625 6.375)" stroke="white" stroke-width="1.0625"/>
<path d="M11.6875 3.49739L11.9531 3.03731L11.6875 3.49739ZM11.6875 13.5023L11.9531 13.9624L11.6875 13.5023ZM5.3125 13.5023L5.04687 13.9624H5.04687L5.3125 13.5023ZM5.3125 3.49739L5.04687 3.03731L5.3125 3.49739ZM6.32041 2.13567L6.83799 2.25543L6.32041 2.13567ZM2.05866 6.85915L1.72085 7.26916L2.05866 6.85915ZM1.81066 6.16454L1.30909 5.98944L1.81066 6.16454ZM3.76253 13.2743L3.8845 13.7914L3.76253 13.2743ZM3.11874 13.1063L3.52216 12.7606L3.11874 13.1063ZM6.75695 15.3673L6.62664 15.8823L6.75695 15.3673ZM6.32046 14.8643L5.80287 14.984L6.32046 14.8643ZM10.6795 14.8642L10.162 14.7445L10.6795 14.8642ZM10.2431 15.3672L10.3734 15.8823L10.2431 15.3672ZM13.8812 13.1063L13.4777 12.7606L13.8812 13.1063ZM13.2374 13.2743L13.3593 12.7572L13.2374 13.2743ZM14.8894 5.43858L14.4104 5.66847L14.8894 5.43858ZM14.5941 6.24424L14.2943 5.80562L14.5941 6.24424ZM1.81066 10.8354L2.31222 10.6603L1.81066 10.8354ZM2.05866 10.1408L1.72085 9.73082L2.05866 10.1408ZM13.2373 3.72547L13.1154 3.2084L13.2373 3.72547ZM3.76266 3.72545L3.64073 4.24252L3.76266 3.72545ZM14.8447 9.90292L14.6076 10.3784L14.8447 9.90292ZM15.2478 10.6603L14.7418 10.4985L15.2478 10.6603ZM10.6796 2.13569L10.162 2.25545L10.6796 2.13569ZM10.162 2.25545C10.322 2.94669 10.758 3.57418 11.4219 3.95746L11.9531 3.03731C11.5548 2.80732 11.2935 2.43227 11.1972 2.01593L10.162 2.25545ZM11.4219 3.95746C12.0317 4.30955 12.7243 4.39223 13.3592 4.24254L13.1154 3.2084C12.7334 3.29844 12.3194 3.24876 11.9531 3.03731L11.4219 3.95746ZM15.3683 5.20868C15.0794 4.6068 14.7138 4.04898 14.2844 3.54782L13.4776 4.23915C13.8474 4.67079 14.162 5.1509 14.4104 5.66847L15.3683 5.20868ZM14.1977 8C14.1977 7.45338 14.4725 6.97077 14.8938 6.68287L14.2943 5.80562C13.5956 6.28305 13.1352 7.08768 13.1352 8H14.1977ZM15.0817 9.42748C14.5566 9.1657 14.1977 8.62427 14.1977 8H13.1352C13.1352 9.04252 13.7359 9.94379 14.6076 10.3784L15.0817 9.42748ZM14.2846 13.4519C14.9364 12.6912 15.441 11.7999 15.7538 10.8222L14.7418 10.4985C14.4731 11.3386 14.0391 12.1054 13.4777 12.7606L14.2846 13.4519ZM11.9531 13.9624C12.3194 13.7509 12.7335 13.7013 13.1154 13.7914L13.3593 12.7572C12.7244 12.6075 12.0318 12.6902 11.4219 13.0423L11.9531 13.9624ZM11.1971 14.984C11.2934 14.5676 11.5547 14.1924 11.9531 13.9624L11.4219 13.0423C10.7579 13.4256 10.3219 14.0532 10.162 14.7445L11.1971 14.984ZM8.49995 16.1146C9.14574 16.1146 9.77349 16.0341 10.3734 15.8823L10.1127 14.8522C9.59735 14.9826 9.05713 15.0521 8.49995 15.0521V16.1146ZM6.62664 15.8823C7.22649 16.0341 7.8542 16.1146 8.49995 16.1146V15.0521C7.9428 15.0521 7.40262 14.9827 6.88727 14.8523L6.62664 15.8823ZM5.04687 13.9624C5.44527 14.1924 5.70656 14.5676 5.80287 14.984L6.83804 14.7445C6.67815 14.0532 6.24207 13.4256 5.57812 13.0423L5.04687 13.9624ZM3.8845 13.7914C4.26644 13.7013 4.68058 13.7509 5.04687 13.9624L5.57812 13.0423C4.96821 12.6901 4.27549 12.6075 3.64057 12.7572L3.8845 13.7914ZM1.30909 11.0105C1.62467 11.9145 2.10562 12.7404 2.71532 13.4519L3.52216 12.7606C2.99703 12.1477 2.58341 11.4372 2.31222 10.6603L1.30909 11.0105ZM2.30203 8.49999C2.30203 8.99537 2.07665 9.43766 1.72085 9.73082L2.39648 10.5508C2.98674 10.0645 3.36453 9.32614 3.36453 8.49999H2.30203ZM1.72085 7.26916C2.07665 7.56232 2.30203 8.00461 2.30203 8.49999H3.36453C3.36453 7.67384 2.98674 6.93548 2.39648 6.44915L1.72085 7.26916ZM2.71552 3.54779C2.10573 4.25944 1.62471 5.08536 1.30909 5.98944L2.31222 6.33963C2.58344 5.56272 2.99712 4.85208 3.52234 4.23913L2.71552 3.54779ZM5.04687 3.03731C4.68061 3.24877 4.26651 3.29844 3.88459 3.20838L3.64073 4.24252C4.27561 4.39223 4.96827 4.30956 5.57812 3.95746L5.04687 3.03731ZM5.80283 2.01591C5.7065 2.43226 5.44522 2.80732 5.04687 3.03731L5.57812 3.95746C6.24199 3.57418 6.67804 2.94667 6.83799 2.25543L5.80283 2.01591ZM8.49995 0.885406C7.85417 0.885406 7.22645 0.965914 6.62657 1.11771L6.88721 2.14774C7.40258 2.01733 7.94278 1.94791 8.49995 1.94791V0.885406ZM10.3734 1.11774C9.77353 0.965925 9.14577 0.885406 8.49995 0.885406V1.94791C9.05715 1.94791 9.59739 2.01734 10.1128 2.14777L10.3734 1.11774ZM6.83799 2.25543C6.84904 2.20764 6.86778 2.17392 6.88231 2.15624C6.8948 2.14106 6.89703 2.14526 6.88721 2.14774L6.62657 1.11771C6.13697 1.24159 5.88416 1.66443 5.80283 2.01591L6.83799 2.25543ZM2.39648 6.44915C2.35336 6.41361 2.32829 6.37517 2.31823 6.34946C2.30978 6.32784 2.316 6.3288 2.31222 6.33963L1.30909 5.98944C1.12067 6.52918 1.41261 7.01519 1.72085 7.26916L2.39648 6.44915ZM3.64057 12.7572C3.59295 12.7685 3.55451 12.7666 3.53222 12.7614C3.51306 12.757 3.51569 12.7531 3.52216 12.7606L2.71532 13.4519C3.04332 13.8348 3.53347 13.8742 3.8845 13.7914L3.64057 12.7572ZM6.88727 14.8523C6.89708 14.8547 6.89486 14.8589 6.88237 14.8437C6.86783 14.8261 6.8491 14.7923 6.83804 14.7445L5.80287 14.984C5.88417 15.3355 6.13698 15.7584 6.62664 15.8823L6.88727 14.8523ZM10.162 14.7445C10.1509 14.7923 10.1322 14.826 10.1176 14.8437C10.1051 14.8589 10.1029 14.8547 10.1127 14.8522L10.3734 15.8823C10.863 15.7584 11.1158 15.3355 11.1971 14.984L10.162 14.7445ZM13.4777 12.7606C13.4842 12.7531 13.4869 12.757 13.4677 12.7614C13.4454 12.7666 13.407 12.7685 13.3593 12.7572L13.1154 13.7914C13.4665 13.8741 13.9566 13.8347 14.2846 13.4519L13.4777 12.7606ZM14.4104 5.66847C14.4092 5.66597 14.4083 5.66155 14.4083 5.65927C14.4083 5.65847 14.4085 5.66592 14.402 5.68179C14.3875 5.71736 14.351 5.76688 14.2943 5.80562L14.8938 6.68287C15.2737 6.42325 15.6681 5.83334 15.3683 5.20868L14.4104 5.66847ZM2.31222 10.6603C2.316 10.6712 2.30978 10.6721 2.31823 10.6505C2.32829 10.6248 2.35336 10.5864 2.39648 10.5508L1.72085 9.73082C1.41261 9.98479 1.12067 10.4708 1.30909 11.0105L2.31222 10.6603ZM13.3592 4.24254C13.4068 4.23131 13.4452 4.23316 13.4675 4.23835C13.4867 4.24281 13.484 4.2467 13.4776 4.23915L14.2844 3.54782C13.9564 3.16506 13.4664 3.12564 13.1154 3.2084L13.3592 4.24254ZM3.52234 4.23913C3.51587 4.24668 3.51323 4.24279 3.5324 4.23833C3.55468 4.23314 3.59312 4.23129 3.64073 4.24252L3.88459 3.20838C3.53359 3.12561 3.0435 3.16503 2.71552 3.54779L3.52234 4.23913ZM14.6076 10.3784C14.6693 10.4091 14.7123 10.4533 14.7316 10.4866C14.7402 10.5014 14.7411 10.5088 14.741 10.508C14.7407 10.5057 14.7409 10.5012 14.7418 10.4985L15.7538 10.8222C15.9649 10.1622 15.4928 9.63245 15.0817 9.42748L14.6076 10.3784ZM11.1972 2.01593C11.1158 1.66445 10.863 1.24163 10.3734 1.11774L10.1128 2.14777C10.103 2.14528 10.1052 2.14108 10.1177 2.15627C10.1322 2.17395 10.151 2.20766 10.162 2.25545L11.1972 2.01593Z" fill="white"/>
</svg>
