<svg width="17" height="17" viewBox="0 0 17 17" fill="none" xmlns="http://www.w3.org/2000/svg">
<circle cx="2.41135" cy="2.41135" r="2.41135" transform="matrix(-1 0 0 1 11.0621 3.54163)" stroke="white" stroke-width="1.0625"/>
<path d="M4.43085 11.942C4.43085 11.4234 4.75689 10.9607 5.24533 10.7863V10.7863C7.44747 9.99981 9.85394 9.99981 12.0561 10.7863V10.7863C12.5445 10.9607 12.8706 11.4234 12.8706 11.942V12.7351C12.8706 13.4509 12.2366 14.0008 11.5279 13.8996L11.2917 13.8658C9.53991 13.6156 7.7615 13.6156 6.00976 13.8658L5.77349 13.8996C5.06485 14.0008 4.43085 13.4509 4.43085 12.7351V11.942Z" stroke="white" stroke-width="1.0625"/>
<path d="M12.2678 8.43106C13.3142 8.43106 14.1624 7.58281 14.1624 6.53643C14.1624 5.49005 13.3142 4.6418 12.2678 4.6418" stroke="white" stroke-width="1.0625" stroke-linecap="round"/>
<path d="M14.3428 12.7535L14.5284 12.78C15.0852 12.8596 15.5834 12.4275 15.5834 11.8651V11.242C15.5834 10.8345 15.3272 10.471 14.9434 10.3339C14.5606 10.1972 14.1699 10.0907 13.7748 10.0145" stroke="white" stroke-width="1.0625" stroke-linecap="round"/>
<path d="M4.73209 8.43106C3.68572 8.43106 2.83746 7.58281 2.83746 6.53643C2.83746 5.49005 3.68572 4.6418 4.73209 4.6418" stroke="white" stroke-width="1.0625" stroke-linecap="round"/>
<path d="M2.6571 12.7535L2.47146 12.78C1.91467 12.8596 1.41653 12.4275 1.41653 11.8651V11.242C1.41653 10.8345 1.67271 10.471 2.05648 10.3339C2.4393 10.1972 2.82998 10.0907 3.22504 10.0145" stroke="white" stroke-width="1.0625" stroke-linecap="round"/>
</svg>
